<?xml version="1.0" standalone="no"?>
<!DOCTYPE svg PUBLIC "-//W3C//DTD SVG 20010904//EN"
 "http://www.w3.org/TR/2001/REC-SVG-20010904/DTD/svg10.dtd">
<svg version="1.0" xmlns="http://www.w3.org/2000/svg"
 width="217.000000pt" height="46.000000pt" viewBox="0 0 217.000000 46.000000"
 preserveAspectRatio="xMidYMid meet">

<g transform="translate(0.000000,46.000000) scale(0.100000,-0.100000)"
fill="#000000" stroke="none">
<path d="M190 450 c-90 -17 -180 -107 -180 -181 0 -17 8 -19 75 -19 83 0 107
13 127 71 13 39 21 37 42 -10 12 -29 28 -45 57 -57 47 -21 48 -29 10 -42 -56
-20 -71 -47 -71 -135 l0 -79 85 3 c119 5 120 7 119 162 0 104 -3 128 -21 162
-49 94 -146 143 -243 125z"/>
<path d="M427 453 c-4 -3 -7 -12 -7 -20 0 -15 26 -18 34 -4 7 11 -18 33 -27
24z"/>
<path d="M899 343 l-56 -4 -8 -110 c-6 -98 -1 -148 12 -111 3 6 14 12 26 11
21 0 21 -1 2 -9 -16 -7 -13 -9 16 -9 69 -2 99 9 99 35 0 21 -5 24 -41 24 -24
0 -38 -4 -34 -10 3 -6 -1 -7 -9 -4 -9 3 -16 14 -16 24 0 20 19 30 55 30 18 0
22 4 18 20 -4 15 -14 20 -39 20 -27 0 -34 4 -34 19 0 15 10 19 46 24 44 5 67
21 61 42 -4 12 -21 13 -98 8z m26 -23 c3 -5 -1 -10 -10 -10 -9 0 -13 5 -10 10
3 6 8 10 10 10 2 0 7 -4 10 -10z m-44 -123 c-8 -8 -11 -7 -11 4 0 20 13 34 18
19 3 -7 -1 -17 -7 -23z"/>
<path d="M1080 341 c0 -4 -11 -6 -24 -4 -28 6 -32 -8 -35 -121 -2 -53 1 -76 8
-71 18 11 12 -7 -6 -21 -16 -12 -13 -13 27 -14 56 0 86 20 111 74 23 50 24 88
3 127 -11 23 -21 30 -35 26 -10 -3 -17 -1 -13 4 3 5 -4 9 -15 9 -12 0 -21 -4
-21 -9z m56 -88 c21 -38 22 -53 3 -53 -5 0 -6 7 -3 15 4 8 1 15 -5 15 -6 0
-11 -7 -11 -15 0 -18 -38 -58 -49 -51 -11 7 0 120 13 128 18 12 27 5 52 -39z"/>
<path d="M1232 338 c-9 -11 -32 -162 -32 -210 0 -13 8 -18 31 -18 28 0 29 1
15 16 -19 19 -20 31 -3 37 8 4 8 6 0 6 -6 1 -9 10 -6 22 4 16 8 17 14 7 5 -8
9 21 9 70 0 79 -6 96 -28 70z"/>
<path d="M1343 343 c-62 -5 -60 -1 -66 -140 l-3 -93 47 0 c81 0 109 9 109 36
0 21 -5 24 -41 24 -24 0 -38 -4 -34 -10 3 -5 0 -7 -7 -5 -7 3 -18 17 -25 32
-13 27 -9 48 8 37 5 -3 6 -10 3 -16 -5 -8 1 -9 17 -5 13 4 31 7 41 7 11 0 15
6 11 20 -4 15 -14 20 -39 20 -27 0 -34 4 -34 20 0 14 7 20 24 20 58 0 86 12
86 36 0 19 -5 24 -22 22 -13 -1 -47 -3 -75 -5z m22 -23 c3 -5 1 -10 -4 -10 -6
0 -11 5 -11 10 0 6 2 10 4 10 3 0 8 -4 11 -10z m-42 -197 c-7 -2 -19 -2 -25 0
-7 3 -2 5 12 5 14 0 19 -2 13 -5z"/>
<path d="M1554 343 c-15 -3 -28 -24 -52 -91 -17 -48 -35 -99 -38 -114 -6 -26
-4 -28 25 -28 24 0 31 4 31 19 0 12 9 20 27 24 34 6 43 1 43 -24 0 -15 7 -19
31 -19 24 0 29 4 25 18 -3 9 -10 46 -16 82 -21 122 -31 140 -76 133z m16 -103
c0 -13 6 -18 20 -15 11 2 20 -1 20 -7 0 -5 -7 -8 -15 -5 -8 4 -17 2 -20 -3 -4
-6 -17 -10 -30 -10 -25 0 -25 0 -8 35 17 35 33 38 33 5z m58 -100 c3 -21 2
-22 -12 -11 -19 16 -21 44 -3 39 6 -3 14 -15 15 -28z"/>
<path d="M1904 343 l-51 -4 -7 -61 c-9 -90 -7 -168 4 -168 6 0 10 5 10 10 0 6
8 10 18 10 14 0 15 -2 2 -10 -11 -7 -4 -10 25 -10 64 0 85 9 85 37 0 23 -3 24
-46 22 -48 -3 -64 8 -64 46 1 18 2 18 13 4 8 -11 23 -14 48 -11 30 3 36 7 32
23 -4 14 -14 19 -39 19 -27 0 -34 4 -34 19 0 15 10 20 50 25 45 6 50 9 50 31
0 20 -5 25 -22 23 -13 -1 -46 -3 -74 -5z m36 -29 c0 -2 -7 -4 -15 -4 -8 0 -15
4 -15 10 0 5 7 7 15 4 8 -4 15 -8 15 -10z"/>
<path d="M775 333 c-13 -3 -27 -20 -39 -49 -20 -49 -30 -48 -43 6 -8 30 -14
35 -41 38 l-32 3 0 -110 0 -111 26 0 c18 0 25 5 23 18 -1 9 -1 26 0 37 2 17 4
16 17 -7 18 -33 29 -35 44 -7 9 17 8 23 -7 35 -10 7 -13 14 -6 14 6 0 15 -5
18 -10 4 -6 11 -7 17 -4 8 5 9 -6 4 -34 -6 -41 -6 -42 24 -42 l30 0 0 109 c0
61 -3 111 -7 113 -5 2 -17 3 -28 1z"/>
<path d="M1701 314 c-12 -15 -21 -35 -21 -46 0 -20 32 -57 64 -75 13 -7 17
-16 12 -28 -6 -17 -18 -17 -57 -1 -11 5 -19 1 -23 -10 -9 -24 6 -36 56 -41 35
-4 47 -1 62 16 17 19 17 21 3 21 -19 0 -23 15 -7 25 6 3 10 1 10 -4 0 -6 5
-11 10 -11 23 0 7 36 -31 71 -24 22 -39 45 -37 55 5 26 28 30 28 5 0 -16 6
-21 25 -21 19 0 25 5 25 23 0 33 -18 47 -61 47 -29 0 -43 -6 -58 -26z"/>
<path d="M1 125 c5 -112 12 -119 124 -124 l85 -3 0 80 c0 112 -20 132 -132
132 l-80 0 3 -85z"/>
</g>
</svg>
